<?xml version="1.0" encoding="UTF-8"?>
<svg xmlns="http://www.w3.org/2000/svg" xmlns:xlink="http://www.w3.org/1999/xlink" width="108.54pt" height="36.542pt" viewBox="0 0 108.54 36.542" version="1.1">
<defs>
<clipPath id="clip1">
  <path d="M 0 0 L 108.539062 0 L 108.539062 36.542969 L 0 36.542969 Z M 0 0 "/>
</clipPath>
<clipPath id="clip2">
  <path d="M 4.6875 4.6875 L 103.855469 4.6875 L 103.855469 31.855469 L 4.6875 31.855469 Z M 4.6875 4.6875 "/>
</clipPath>
</defs>
<g id="surface1">
<g clip-path="url(#clip1)" clip-rule="nonzero">
<path style="fill:none;stroke-width:0.3985;stroke-linecap:butt;stroke-linejoin:miter;stroke:rgb(0%,0%,0%);stroke-opacity:1;stroke-miterlimit:10;" d="M -4.488781 -4.48975 L -4.488781 31.654781 L 103.65575 31.654781 L 103.65575 -4.48975 Z M -4.488781 -4.48975 " transform="matrix(1,0,0,-1,4.688,31.854)"/>
</g>
<path style="fill:none;stroke-width:0.3985;stroke-linecap:butt;stroke-linejoin:miter;stroke:rgb(0%,0%,0%);stroke-opacity:1;stroke-miterlimit:10;" d="M -0.0005 19.357469 L 97.171375 19.357469 " transform="matrix(1,0,0,-1,4.688,37.627)"/>
<path style=" stroke:none;fill-rule:nonzero;fill:rgb(0%,0%,0%);fill-opacity:1;" d="M 103.855469 18.269531 L 100.664062 16.675781 L 101.859375 18.269531 L 100.664062 19.863281 "/>
<path style="fill:none;stroke-width:0.3985;stroke-linecap:butt;stroke-linejoin:miter;stroke:rgb(0%,0%,0%);stroke-opacity:1;stroke-miterlimit:10;" d="M 49.581531 5.771531 L 49.581531 30.947313 " transform="matrix(1,0,0,-1,4.688,37.627)"/>
<path style=" stroke:none;fill-rule:nonzero;fill:rgb(0%,0%,0%);fill-opacity:1;" d="M 54.269531 4.6875 L 52.675781 7.875 L 54.269531 6.679688 L 55.863281 7.875 "/>
<g clip-path="url(#clip2)" clip-rule="nonzero">
<path style="fill:none;stroke-width:1.19553;stroke-linecap:butt;stroke-linejoin:miter;stroke:rgb(0%,0%,50%);stroke-opacity:1;stroke-miterlimit:10;" d="M -0.0005 -0.00190625 C -0.0005 -0.00190625 2.983875 1.228563 4.132313 1.697313 C 5.276844 2.169969 7.116688 2.923875 8.265125 3.396531 C 9.409656 3.865281 11.2495 4.623094 12.394031 5.091844 C 13.542469 5.5645 15.382313 6.322313 16.526844 6.791063 C 17.675281 7.263719 19.511219 8.017625 20.659656 8.490281 C 21.804188 8.959031 23.644031 9.716844 24.792469 10.185594 C 25.937 10.65825 27.776844 11.416063 28.921375 11.884813 C 30.069813 12.357469 31.909656 13.111375 33.054187 13.584031 C 34.202625 14.052781 36.038562 14.810594 37.187 15.279344 C 38.331531 15.752 40.171375 16.509813 41.319812 16.978563 C 42.464344 17.451219 44.304187 18.205125 45.448719 18.677781 C 46.597156 19.146531 48.437 19.904344 49.581531 20.373094 C 50.729969 20.84575 52.569812 21.599656 53.714344 22.072313 C 54.862781 22.544969 56.698719 23.298875 57.847156 23.771531 C 58.991687 24.240281 60.831531 24.998094 61.979969 25.466844 C 63.1245 25.9395 64.964344 26.693406 66.108875 27.166063 C 67.257312 27.638719 69.097156 28.392625 70.241687 28.865281 C 71.390125 29.334031 73.226062 30.091844 74.3745 30.560594 C 75.519031 31.03325 77.358875 31.787156 78.507312 32.259813 C 79.651844 32.732469 81.491687 33.486375 82.636219 33.959031 C 83.784656 34.427781 85.6245 35.185594 86.769031 35.654344 C 87.917469 36.127 89.753406 36.880906 90.901844 37.353563 C 92.046375 37.826219 93.886219 38.580125 95.034656 39.052781 C 96.179187 39.521531 99.163562 40.748094 99.163562 40.748094 " transform="matrix(1,0,0,-1,4.688,37.627)"/>
</g>
</g>
</svg>
