<?xml version="1.0" encoding="UTF-8"?>
<svg xmlns="http://www.w3.org/2000/svg" xmlns:xlink="http://www.w3.org/1999/xlink" width="108.54pt" height="36.542pt" viewBox="0 0 108.54 36.542" version="1.1">
<defs>
<clipPath id="clip1">
  <path d="M 0 0 L 108.539062 0 L 108.539062 36.542969 L 0 36.542969 Z M 0 0 "/>
</clipPath>
<clipPath id="clip2">
  <path d="M 4.6875 4.6875 L 103.855469 4.6875 L 103.855469 31.855469 L 4.6875 31.855469 Z M 4.6875 4.6875 "/>
</clipPath>
</defs>
<g id="surface1">
<g clip-path="url(#clip1)" clip-rule="nonzero">
<path style="fill:none;stroke-width:0.3985;stroke-linecap:butt;stroke-linejoin:miter;stroke:rgb(0%,0%,0%);stroke-opacity:1;stroke-miterlimit:10;" d="M -4.488781 -4.48975 L -4.488781 31.654781 L 103.65575 31.654781 L 103.65575 -4.48975 Z M -4.488781 -4.48975 " transform="matrix(1,0,0,-1,4.688,31.854)"/>
</g>
<path style="fill:none;stroke-width:0.3985;stroke-linecap:butt;stroke-linejoin:miter;stroke:rgb(0%,0%,0%);stroke-opacity:1;stroke-miterlimit:10;" d="M -0.0005 13.584469 L 97.171375 13.584469 " transform="matrix(1,0,0,-1,4.688,31.854)"/>
<path style=" stroke:none;fill-rule:nonzero;fill:rgb(0%,0%,0%);fill-opacity:1;" d="M 103.855469 18.269531 L 100.664062 16.675781 L 101.859375 18.269531 L 100.664062 19.863281 "/>
<path style="fill:none;stroke-width:0.3985;stroke-linecap:butt;stroke-linejoin:miter;stroke:rgb(0%,0%,0%);stroke-opacity:1;stroke-miterlimit:10;" d="M 49.581531 -0.00146875 L 49.581531 25.174313 " transform="matrix(1,0,0,-1,4.688,31.854)"/>
<path style=" stroke:none;fill-rule:nonzero;fill:rgb(0%,0%,0%);fill-opacity:1;" d="M 54.269531 4.6875 L 52.675781 7.875 L 54.269531 6.679688 L 55.863281 7.875 "/>
<g clip-path="url(#clip2)" clip-rule="nonzero">
<path style="fill:none;stroke-width:1.19553;stroke-linecap:butt;stroke-linejoin:miter;stroke:rgb(0%,0%,50%);stroke-opacity:1;stroke-miterlimit:10;" d="M -0.0005 8.830563 C -0.0005 8.830563 2.983875 10.506344 4.132313 11.057125 C 5.276844 11.607906 7.116688 12.377438 8.265125 12.795406 C 9.409656 13.217281 11.2495 13.787594 12.394031 14.092281 C 13.542469 14.396969 15.382313 14.7915 16.526844 14.990719 C 17.675281 15.193844 19.511219 15.432125 20.659656 15.5415 C 21.804188 15.654781 23.644031 15.756344 24.792469 15.7915 C 25.937 15.82275 27.776844 15.814938 28.921375 15.783688 C 30.069813 15.752438 31.909656 15.650875 33.054187 15.568844 C 34.202625 15.490719 36.038562 15.314938 37.187 15.19775 C 38.331531 15.076656 40.171375 14.854 41.319812 14.709469 C 42.464344 14.564938 44.304187 14.311031 45.448719 14.154781 C 46.597156 13.998531 48.437 13.736813 49.581531 13.584469 C 50.729969 13.428219 52.569812 13.178219 53.714344 13.037594 C 54.862781 12.896969 56.698719 12.682125 57.847156 12.57275 C 58.991687 12.459469 60.831531 12.299313 61.979969 12.225094 C 63.1245 12.150875 64.964344 12.068844 66.108875 12.049313 C 67.257312 12.029781 69.097156 12.0415 70.241687 12.088375 C 71.390125 12.139156 73.226062 12.268063 74.3745 12.393063 C 75.519031 12.521969 77.358875 12.7915 78.507312 13.01025 C 79.651844 13.232906 81.491687 13.658688 82.636219 13.986813 C 83.784656 14.311031 85.6245 14.920406 86.769031 15.365719 C 87.917469 15.811031 89.753406 16.619625 90.901844 17.19775 C 92.046375 17.775875 93.886219 18.807125 95.034656 19.533688 C 96.179187 20.256344 99.163562 22.412594 99.163562 22.412594 " transform="matrix(1,0,0,-1,4.688,31.854)"/>
</g>
</g>
</svg>
