<?xml version="1.0" encoding="UTF-8"?>
<svg xmlns="http://www.w3.org/2000/svg" xmlns:xlink="http://www.w3.org/1999/xlink" width="108.54pt" height="36.542pt" viewBox="0 0 108.54 36.542" version="1.1">
<defs>
<clipPath id="clip1">
  <path d="M 0 0 L 108.539062 0 L 108.539062 36.542969 L 0 36.542969 Z M 0 0 "/>
</clipPath>
<clipPath id="clip2">
  <path d="M 4.6875 4.6875 L 103.855469 4.6875 L 103.855469 31.855469 L 4.6875 31.855469 Z M 4.6875 4.6875 "/>
</clipPath>
</defs>
<g id="surface1">
<g clip-path="url(#clip1)" clip-rule="nonzero">
<path style="fill:none;stroke-width:0.3985;stroke-linecap:butt;stroke-linejoin:miter;stroke:rgb(0%,0%,0%);stroke-opacity:1;stroke-miterlimit:10;" d="M -4.488781 -4.48975 L -4.488781 31.654781 L 103.65575 31.654781 L 103.65575 -4.48975 Z M -4.488781 -4.48975 " transform="matrix(1,0,0,-1,4.688,31.854)"/>
</g>
<path style="fill:none;stroke-width:0.3985;stroke-linecap:butt;stroke-linejoin:miter;stroke:rgb(0%,0%,0%);stroke-opacity:1;stroke-miterlimit:10;" d="M -0.0005 13.584469 L 97.171375 13.584469 " transform="matrix(1,0,0,-1,4.688,31.854)"/>
<path style=" stroke:none;fill-rule:nonzero;fill:rgb(0%,0%,0%);fill-opacity:1;" d="M 103.855469 18.269531 L 100.664062 16.675781 L 101.859375 18.269531 L 100.664062 19.863281 "/>
<path style="fill:none;stroke-width:0.3985;stroke-linecap:butt;stroke-linejoin:miter;stroke:rgb(0%,0%,0%);stroke-opacity:1;stroke-miterlimit:10;" d="M 49.581531 -0.00146875 L 49.581531 25.174313 " transform="matrix(1,0,0,-1,4.688,31.854)"/>
<path style=" stroke:none;fill-rule:nonzero;fill:rgb(0%,0%,0%);fill-opacity:1;" d="M 54.269531 4.6875 L 52.675781 7.875 L 54.269531 6.679688 L 55.863281 7.875 "/>
<g clip-path="url(#clip2)" clip-rule="nonzero">
<path style="fill:none;stroke-width:1.19553;stroke-linecap:butt;stroke-linejoin:miter;stroke:rgb(0%,0%,50%);stroke-opacity:1;stroke-miterlimit:10;" d="M -0.0005 28.525875 C -0.0005 28.525875 2.983875 26.256344 4.132313 25.439938 C 5.276844 24.623531 7.116688 23.377438 8.265125 22.639156 C 9.409656 21.900875 11.2495 20.779781 12.394031 20.119625 C 13.542469 19.459469 15.382313 18.467281 16.526844 17.88525 C 17.675281 17.303219 19.511219 16.436031 20.659656 15.932125 C 21.804188 15.428219 23.644031 14.686031 24.792469 14.264156 C 25.937 13.838375 27.776844 13.221188 28.921375 12.877438 C 30.069813 12.529781 31.909656 12.037594 33.054187 11.771969 C 34.202625 11.506344 36.038562 11.139156 37.187 10.951656 C 38.331531 10.764156 40.171375 10.521969 41.319812 10.412594 C 42.464344 10.303219 44.304187 10.189938 45.448719 10.158688 C 46.597156 10.127438 48.437 10.139156 49.581531 10.186031 C 50.729969 10.232906 52.569812 10.373531 53.714344 10.498531 C 54.862781 10.623531 56.698719 10.889156 57.847156 11.092281 C 58.991687 11.295406 60.831531 11.686031 61.979969 11.971188 C 63.1245 12.252438 64.964344 12.768063 66.108875 13.131344 C 67.257312 13.490719 69.097156 14.13525 70.241687 14.57275 C 71.390125 15.014156 73.226062 15.779781 74.3745 16.299313 C 75.519031 16.818844 77.358875 17.713375 78.507312 18.307125 C 79.651844 18.904781 81.491687 19.924313 82.636219 20.600094 C 83.784656 21.275875 85.6245 22.424313 86.769031 23.174313 C 87.917469 23.928219 89.753406 25.201656 90.901844 26.033688 C 92.046375 26.865719 93.886219 28.264156 95.034656 29.174313 C 96.179187 30.084469 99.163562 32.600094 99.163562 32.600094 " transform="matrix(1,0,0,-1,4.688,31.854)"/>
</g>
</g>
</svg>
