<?xml version="1.0" encoding="UTF-8"?>
<svg xmlns="http://www.w3.org/2000/svg" xmlns:xlink="http://www.w3.org/1999/xlink" width="387.564pt" height="171.566pt" viewBox="0 0 387.564 171.566" version="1.1">
<defs>
<clipPath id="clip1">
  <path d="M 384 84 L 387.5625 84 L 387.5625 88 L 384 88 Z M 384 84 "/>
</clipPath>
<clipPath id="clip2">
  <path d="M 193 1 L 194 1 L 194 171.566406 L 193 171.566406 Z M 193 1 "/>
</clipPath>
<clipPath id="clip3">
  <path d="M 0.199219 0.199219 L 387.367188 0.199219 L 387.367188 125 L 0.199219 125 Z M 0.199219 0.199219 "/>
</clipPath>
</defs>
<g id="surface1">
<path style="fill:none;stroke-width:0.3985;stroke-linecap:butt;stroke-linejoin:miter;stroke:rgb(0%,0%,0%);stroke-opacity:1;stroke-miterlimit:10;" d="M 0.00021875 85.58575 L 385.176 85.58575 " transform="matrix(1,0,0,-1,0.199,171.367)"/>
<g clip-path="url(#clip1)" clip-rule="nonzero">
<path style=" stroke:none;fill-rule:nonzero;fill:rgb(0%,0%,0%);fill-opacity:1;" d="M 387.367188 85.78125 L 384.179688 84.1875 L 385.375 85.78125 L 384.179688 87.375 "/>
</g>
<g clip-path="url(#clip2)" clip-rule="nonzero">
<path style="fill:none;stroke-width:0.3985;stroke-linecap:butt;stroke-linejoin:miter;stroke:rgb(0%,0%,0%);stroke-opacity:1;stroke-miterlimit:10;" d="M 193.586156 -0.0001875 L 193.586156 169.175594 " transform="matrix(1,0,0,-1,0.199,171.367)"/>
</g>
<path style=" stroke:none;fill-rule:nonzero;fill:rgb(0%,0%,0%);fill-opacity:1;" d="M 193.785156 0.199219 L 192.191406 3.386719 L 193.785156 2.191406 L 195.378906 3.386719 "/>
<g clip-path="url(#clip3)" clip-rule="nonzero">
<path style="fill:none;stroke-width:1.19553;stroke-linecap:butt;stroke-linejoin:miter;stroke:rgb(0%,0%,50%);stroke-opacity:1;stroke-miterlimit:10;" d="M 0.00021875 179.726375 C 0.00021875 179.726375 11.656469 165.437312 16.133031 160.292781 C 20.609594 155.14825 27.789281 147.292781 32.265844 142.640437 C 36.742406 137.992 43.918188 130.9295 48.39475 126.77325 C 52.871313 122.617 60.051 116.347469 64.527563 112.687312 C 69.004125 109.027156 76.183813 103.550594 80.660375 100.382625 C 85.136938 97.218562 92.316625 92.534969 96.793188 89.863094 C 101.26975 87.191219 108.449438 83.3045 112.926 81.128719 C 117.402563 78.949031 124.578344 75.855281 129.054906 74.171687 C 133.531469 72.492 140.711156 70.191219 145.187719 69.003719 C 149.664281 67.816219 156.843969 66.308406 161.320531 65.613094 C 165.797094 64.921687 172.976781 64.206844 177.453344 64.011531 C 181.929906 63.812312 189.109594 63.890437 193.586156 64.187312 C 198.062719 64.484187 205.2385 65.359187 209.715062 66.14825 C 214.191625 66.941219 221.371312 68.609187 225.847875 69.894344 C 230.324437 71.1795 237.504125 73.640437 241.980687 75.421687 C 246.45725 77.202937 253.636937 80.456844 258.1135 82.730281 C 262.590062 85.007625 269.765844 89.0545 274.242406 91.824031 C 278.718969 94.593562 285.898656 99.433406 290.375219 102.699031 C 294.851781 105.964656 302.031469 111.601375 306.508031 115.359187 C 310.984594 119.120906 318.164281 125.546687 322.640844 129.800594 C 327.117406 134.058406 334.297094 141.277156 338.773656 146.027156 C 343.250219 150.777156 350.426 158.792781 354.902562 164.034969 C 359.379125 169.281062 366.558812 178.08575 371.035375 183.827937 C 375.511937 189.566219 387.168187 205.402156 387.168187 205.402156 " transform="matrix(1,0,0,-1,0.199,171.367)"/>
</g>
</g>
</svg>
