<?xml version="1.0" encoding="UTF-8"?>
<svg xmlns="http://www.w3.org/2000/svg" xmlns:xlink="http://www.w3.org/1999/xlink" width="52.519pt" height="50.938pt" viewBox="0 0 52.519 50.938" version="1.1">
<defs>
<clipPath id="clip1">
  <path d="M 0 0 L 52.519531 0 L 52.519531 50.9375 L 0 50.9375 Z M 0 0 "/>
</clipPath>
</defs>
<g id="surface1">
<g clip-path="url(#clip1)" clip-rule="nonzero">
<path style="fill:none;stroke-width:0.3985;stroke-linecap:butt;stroke-linejoin:miter;stroke:rgb(0%,0%,0%);stroke-opacity:1;stroke-miterlimit:10;" d="M -0.293781 -4.588281 L -0.293781 45.950781 L 51.827312 45.950781 L 51.827312 -4.588281 Z M -0.293781 -4.588281 " transform="matrix(1,0,0,-1,0.493,46.15)"/>
<path style="fill:none;stroke-width:1.19553;stroke-linecap:butt;stroke-linejoin:miter;stroke:rgb(0%,0%,50%);stroke-opacity:1;stroke-miterlimit:10;" d="M 0.003125 -0.0036875 C 0.003125 -0.0036875 2.589063 4.918188 3.58125 6.746313 C 4.573438 8.58225 6.167188 11.45725 7.159375 13.215063 C 8.151563 14.965063 9.745313 17.715063 10.7375 19.386938 C 11.729688 21.066625 13.323438 23.683813 14.315625 25.277563 C 15.307813 26.871313 16.901563 29.3635 17.89375 30.879125 C 18.885938 32.39475 20.479688 34.761938 21.471875 36.191625 C 22.464063 37.629125 24.057813 39.8635 25.05 41.222875 C 26.042188 42.574438 27.635938 44.683813 28.628125 45.95725 C 29.620313 47.230688 31.214063 49.215063 32.20625 50.410375 C 33.198437 51.605688 34.792187 53.45725 35.784375 54.574438 C 36.784375 55.691625 38.370312 57.418188 39.3625 58.45725 C 40.3625 59.4885 41.948437 61.090063 42.948437 62.043188 C 43.940625 63.004125 45.534375 64.472875 46.526562 65.347875 C 47.51875 66.222875 49.1125 67.566625 50.104687 68.3635 C 51.096875 69.160375 52.690625 70.379125 53.682812 71.090063 C 54.675 71.808813 56.26875 72.89475 57.260937 73.535375 C 58.253125 74.176 59.846875 75.129125 60.839062 75.691625 C 61.83125 76.246313 63.425 77.08225 64.417187 77.558813 C 65.409375 78.035375 67.003125 78.7385 67.995312 79.136938 C 68.9875 79.535375 70.58125 80.1135 71.573437 80.426 C 72.565625 80.746313 74.159375 81.199438 75.151562 81.433813 C 76.14375 81.676 77.7375 81.996313 78.729687 82.152563 C 79.721875 82.308813 81.315625 82.504125 82.307812 82.58225 C 83.307812 82.660375 85.885937 82.730688 85.885937 82.730688 " transform="matrix(0.5,0,0,-0.5,4.7875,46.1505)"/>
</g>
</g>
</svg>
