<?xml version="1.0" encoding="UTF-8"?>
<svg xmlns="http://www.w3.org/2000/svg" xmlns:xlink="http://www.w3.org/1999/xlink" width="52.519pt" height="50.937pt" viewBox="0 0 52.519 50.937" version="1.1">
<g id="surface1">
<path style="fill:none;stroke-width:0.3985;stroke-linecap:butt;stroke-linejoin:miter;stroke:rgb(0%,0%,0%);stroke-opacity:1;stroke-miterlimit:10;" d="M -0.293781 -4.587281 L -0.293781 45.951781 L 51.827312 45.951781 L 51.827312 -4.587281 Z M -0.293781 -4.587281 " transform="matrix(1,0,0,-1,0.493,46.151)"/>
<path style="fill:none;stroke-width:1.19553;stroke-linecap:butt;stroke-linejoin:miter;stroke:rgb(0%,0%,50%);stroke-opacity:1;stroke-miterlimit:10;" d="M 0.003125 82.730687 C 0.003125 82.730687 2.589063 82.660375 3.58125 82.58225 C 4.573438 82.504125 6.167188 82.308812 7.159375 82.152562 C 8.151563 81.996312 9.745313 81.676 10.7375 81.433812 C 11.729688 81.199437 13.323438 80.746312 14.315625 80.426 C 15.307813 80.1135 16.901563 79.535375 17.89375 79.136937 C 18.885938 78.7385 20.479688 78.035375 21.471875 77.558812 C 22.464063 77.08225 24.057813 76.246312 25.05 75.691625 C 26.042188 75.129125 27.635938 74.176 28.628125 73.535375 C 29.620313 72.89475 31.214063 71.808812 32.20625 71.097875 C 33.198437 70.379125 34.792187 69.160375 35.784375 68.3635 C 36.784375 67.566625 38.370312 66.222875 39.3625 65.347875 C 40.3625 64.472875 41.948437 63.004125 42.948437 62.043187 C 43.940625 61.090062 45.534375 59.4885 46.526562 58.45725 C 47.51875 57.418187 49.1125 55.691625 50.104687 54.574437 C 51.096875 53.465062 52.690625 51.605687 53.682812 50.410375 C 54.675 49.215062 56.26875 47.2385 57.260937 45.95725 C 58.253125 44.683812 59.846875 42.574437 60.839062 41.222875 C 61.83125 39.8635 63.425 37.629125 64.417187 36.191625 C 65.409375 34.761937 67.003125 32.39475 67.995312 30.879125 C 68.9875 29.3635 70.58125 26.871312 71.573437 25.277562 C 72.565625 23.683812 74.159375 21.066625 75.151562 19.39475 C 76.14375 17.715062 77.7375 14.972875 78.729687 13.215062 C 79.721875 11.465062 81.315625 8.58225 82.307812 6.754125 C 83.307812 4.918187 85.885937 0.004125 85.885937 0.004125 " transform="matrix(0.5,0,0,-0.5,4.7875,46.1505)"/>
</g>
</svg>
