<?xml version="1.0" encoding="UTF-8"?>
<svg xmlns="http://www.w3.org/2000/svg" xmlns:xlink="http://www.w3.org/1999/xlink" width="52.519pt" height="50.938pt" viewBox="0 0 52.519 50.938" version="1.1">
<defs>
<clipPath id="clip1">
  <path d="M 0 0 L 52.519531 0 L 52.519531 50.9375 L 0 50.9375 Z M 0 0 "/>
</clipPath>
</defs>
<g id="surface1">
<g clip-path="url(#clip1)" clip-rule="nonzero">
<path style="fill:none;stroke-width:0.3985;stroke-linecap:butt;stroke-linejoin:miter;stroke:rgb(0%,0%,0%);stroke-opacity:1;stroke-miterlimit:10;" d="M -0.293781 -4.588281 L -0.293781 45.950781 L 51.827312 45.950781 L 51.827312 -4.588281 Z M -0.293781 -4.588281 " transform="matrix(1,0,0,-1,0.493,46.15)"/>
<path style="fill:none;stroke-width:1.19553;stroke-linecap:butt;stroke-linejoin:miter;stroke:rgb(0%,0%,50%);stroke-opacity:1;stroke-miterlimit:10;" d="M 0.003125 82.730688 C 0.003125 82.730688 2.589063 77.808813 3.58125 75.980688 C 4.573438 74.14475 6.167188 71.26975 7.159375 69.511938 C 8.151563 67.761938 9.745313 65.011938 10.7375 63.340063 C 11.729688 61.668188 13.323438 59.043188 14.315625 57.449438 C 15.307813 55.855688 16.901563 53.3635 17.89375 51.847875 C 18.885938 50.33225 20.479688 47.972875 21.471875 46.535375 C 22.464063 45.097875 24.057813 42.8635 25.05 41.504125 C 26.042188 40.152563 27.635938 38.043188 28.628125 36.76975 C 29.620313 35.496313 31.214063 33.511938 32.20625 32.316625 C 33.198437 31.121313 34.792187 29.26975 35.784375 28.152563 C 36.784375 27.035375 38.370312 25.308813 39.3625 24.26975 C 40.3625 23.2385 41.948437 21.636938 42.948437 20.683813 C 43.940625 19.722875 45.534375 18.254125 46.526562 17.379125 C 47.51875 16.504125 49.1125 15.160375 50.104687 14.3635 C 51.096875 13.566625 52.690625 12.347875 53.682812 11.636938 C 54.675 10.918188 56.26875 9.83225 57.260937 9.191625 C 58.253125 8.551 59.846875 7.597875 60.839062 7.035375 C 61.83125 6.480688 63.425 5.652563 64.417187 5.168188 C 65.409375 4.691625 67.003125 3.9885 67.995312 3.590063 C 68.9875 3.191625 70.58125 2.6135 71.573437 2.301 C 72.565625 1.980688 74.159375 1.535375 75.151562 1.293188 C 76.14375 1.051 77.7375 0.730688 78.729687 0.574438 C 79.721875 0.418188 81.315625 0.222875 82.307812 0.14475 C 83.307812 0.066625 85.885937 -0.0036875 85.885937 -0.0036875 " transform="matrix(0.5,0,0,-0.5,4.7875,46.1505)"/>
</g>
</g>
</svg>
