<?xml version="1.0" encoding="UTF-8"?>
<svg xmlns="http://www.w3.org/2000/svg" xmlns:xlink="http://www.w3.org/1999/xlink" width="52.519pt" height="50.937pt" viewBox="0 0 52.519 50.937" version="1.1">
<g id="surface1">
<path style="fill:none;stroke-width:0.3985;stroke-linecap:butt;stroke-linejoin:miter;stroke:rgb(0%,0%,0%);stroke-opacity:1;stroke-miterlimit:10;" d="M -0.293781 -4.589281 L -0.293781 45.949781 L 51.827312 45.949781 L 51.827312 -4.589281 Z M -0.293781 -4.589281 " transform="matrix(1,0,0,-1,0.493,46.149)"/>
<path style="fill:none;stroke-width:1.19553;stroke-linecap:butt;stroke-linejoin:miter;stroke:rgb(0%,0%,50%);stroke-opacity:1;stroke-miterlimit:10;" d="M 0.003125 0.002125 C 0.003125 0.002125 2.589063 0.064625 3.58125 0.14275 C 4.573438 0.220875 6.167188 0.416188 7.159375 0.572438 C 8.151563 0.7365 9.745313 1.056813 10.7375 1.291188 C 11.729688 1.533375 13.323438 1.978688 14.315625 2.299 C 15.307813 2.619313 16.901563 3.189625 17.89375 3.588063 C 18.885938 3.9865 20.479688 4.689625 21.471875 5.174 C 22.464063 5.650563 24.057813 6.478688 25.05 7.041188 C 26.042188 7.595875 27.635938 8.556813 28.628125 9.189625 C 29.620313 9.83025 31.214063 10.916188 32.20625 11.634938 C 33.198437 12.353688 34.792187 13.564625 35.784375 14.3615 C 36.784375 15.158375 38.370312 16.502125 39.3625 17.377125 C 40.3625 18.252125 41.948437 19.720875 42.948437 20.681813 C 43.940625 21.634938 45.534375 23.2365 46.526562 24.275563 C 47.51875 25.306813 49.1125 27.033375 50.104687 28.150563 C 51.096875 29.26775 52.690625 31.119313 53.682812 32.314625 C 54.675 33.509938 56.26875 35.494313 57.260937 36.76775 C 58.253125 38.041188 59.846875 40.150563 60.839062 41.509938 C 61.83125 42.8615 63.425 45.095875 64.417187 46.533375 C 65.409375 47.970875 67.003125 50.33025 67.995312 51.845875 C 68.9875 53.3615 70.58125 55.853688 71.573437 57.447438 C 72.565625 59.041188 74.159375 61.666188 75.151562 63.338063 C 76.14375 65.009938 77.7375 67.759938 78.729687 69.509938 C 79.721875 71.26775 81.315625 74.14275 82.307812 75.978688 C 83.307812 77.806813 85.885937 82.728688 85.885937 82.728688 " transform="matrix(0.5,0,0,-0.5,4.7875,46.1495)"/>
</g>
</svg>
