<?xml version="1.0" encoding="UTF-8"?>
<svg xmlns="http://www.w3.org/2000/svg" xmlns:xlink="http://www.w3.org/1999/xlink" width="49.77pt" height="49.77pt" viewBox="0 0 49.77 49.77" version="1.1">
<defs>
<clipPath id="clip1">
  <path d="M 0 0 L 49.769531 0 L 49.769531 49.769531 L 0 49.769531 Z M 0 0 "/>
</clipPath>
<clipPath id="clip2">
  <path d="M 0 0 L 41 0 L 41 49.769531 L 0 49.769531 Z M 0 0 "/>
</clipPath>
</defs>
<g id="surface1">
<g clip-path="url(#clip1)" clip-rule="nonzero">
<path style="fill:none;stroke-width:0.3985;stroke-linecap:butt;stroke-linejoin:miter;stroke:rgb(0%,0%,0%);stroke-opacity:1;stroke-miterlimit:10;" d="M -4.329781 -4.329313 L -4.329781 45.041781 L 45.041313 45.041781 L 45.041313 -4.329313 Z M -4.329781 -4.329313 " transform="matrix(1,0,0,-1,4.529,45.241)"/>
</g>
<path style="fill:none;stroke-width:0.3985;stroke-linecap:butt;stroke-linejoin:miter;stroke:rgb(0%,0%,0%);stroke-opacity:1;stroke-miterlimit:10;" d="M -0.00728125 101.791937 L 201.57475 101.791937 " transform="matrix(0.2,0,0,-0.2,4.5288,45.2412)"/>
<path style=" stroke:none;fill-rule:nonzero;fill:rgb(0%,0%,0%);fill-opacity:1;" d="M 45.242188 24.882812 L 44.605469 24.566406 L 44.84375 24.882812 L 44.605469 25.203125 "/>
<path style="fill:none;stroke-width:0.3985;stroke-linecap:butt;stroke-linejoin:miter;stroke:rgb(0%,0%,0%);stroke-opacity:1;stroke-miterlimit:10;" d="M 101.789594 -0.0049375 L 101.789594 201.577094 " transform="matrix(0.2,0,0,-0.2,4.5288,45.2412)"/>
<path style=" stroke:none;fill-rule:nonzero;fill:rgb(0%,0%,0%);fill-opacity:1;" d="M 24.886719 4.527344 L 24.566406 5.164062 L 24.886719 4.925781 L 25.203125 5.164062 "/>
<path style="fill:none;stroke-width:0.3985;stroke-linecap:butt;stroke-linejoin:miter;stroke:rgb(0%,0%,0%);stroke-opacity:1;stroke-dasharray:2.98883,2.98883;stroke-miterlimit:10;" d="M 194.309125 101.791937 C 194.309125 101.791937 192.883344 119.311469 191.164594 125.73725 C 189.445844 132.1435 185.246625 142.29975 181.926312 148.041937 C 178.606 153.803656 171.906781 162.514594 167.219281 167.221625 C 162.51225 171.909125 153.801312 178.588812 148.059125 181.928656 C 142.297406 185.248969 132.160687 189.448187 125.734906 191.166937 C 119.309125 192.885687 108.430219 194.311469 101.789594 194.311469 C 95.129437 194.311469 84.250531 192.885687 77.844281 191.166937 C 71.4185 189.448187 61.281781 185.248969 55.520062 181.928656 C 49.758344 178.588812 41.047406 171.909125 36.359906 167.221625 C 31.652875 162.514594 24.973187 153.803656 21.652875 148.041937 C 18.332562 142.29975 14.133344 132.1435 12.414594 125.73725 C 10.676312 119.311469 9.250531 108.432562 9.250531 101.791937 C 9.250531 95.131781 10.676312 84.252875 12.414594 77.827094 C 14.133344 71.420844 18.332562 61.264594 21.652875 55.522406 C 24.973187 49.760687 31.652875 41.04975 36.359906 36.36225 C 41.047406 31.655219 49.758344 24.975531 55.520062 21.655219 C 61.281781 18.334906 71.4185 14.116156 77.844281 12.397406 C 84.250531 10.678656 95.129437 9.252875 101.789594 9.252875 C 108.430219 9.252875 119.309125 10.678656 125.734906 12.397406 C 132.160687 14.116156 142.297406 18.334906 148.059125 21.655219 C 153.801312 24.975531 162.51225 31.655219 167.219281 36.36225 C 171.906781 41.04975 178.606 49.760687 181.926312 55.522406 C 185.246625 61.264594 189.445844 71.420844 191.164594 77.827094 C 192.883344 84.252875 194.309125 101.791937 194.309125 101.791937 " transform="matrix(0.2,0,0,-0.2,4.5288,45.2412)"/>
<g clip-path="url(#clip2)" clip-rule="nonzero">
<path style="fill:none;stroke-width:5.66934;stroke-linecap:butt;stroke-linejoin:miter;stroke:rgb(50%,0%,0%);stroke-opacity:1;stroke-miterlimit:10;" d="M 101.789594 194.311469 L 89.69975 193.530219 L 77.844281 191.166937 L 66.379437 187.260687 L 55.520062 181.928656 L 45.461469 175.190375 L 36.359906 167.221625 L 28.371625 158.120062 L 21.652875 148.041937 L 16.301312 137.202094 L 12.414594 125.73725 L 10.051312 113.86225 L 9.250531 101.791937 L 10.051312 89.702094 L 12.414594 77.827094 L 16.301312 66.381781 L 21.652875 55.522406 L 28.371625 45.463812 L 36.359906 36.36225 L 45.461469 28.373969 L 55.520062 21.655219 L 66.379437 16.303656 L 77.844281 12.397406 L 89.69975 10.053656 L 101.789594 9.252875 " transform="matrix(0.2,0,0,-0.2,4.5288,45.2412)"/>
</g>
</g>
</svg>
